<svg xmlns="http://www.w3.org/2000/svg" width="280" height="70"><path fill="#3A3A3A" d="M27.969 3.134c10.09-.201 15.432 5.161 15.432 12.202 0 6.978-5.897 11.287-17.578 11.794-.781.032-.839.47.027.509 8.087.399 12.06 1.692 15.388 8.356l5.197 10.393c.866 1.733 1.686 2.732 3.032 3.178 2.589.869 3.871-2.762 4.945-1.3.174.238-.732 2.916-4.727 4.608-4.262 1.804-11.573 1.513-14.991-2.909-3.474-4.493-5.789-13.811-10.1-18.61-1.314-1.454-2.799-3.019-4.72-3.019h-1.517v15.884c0 6.794 3.428 5.631 3.428 6.941 0 .793-.504.938-1.512.938h-17.266c-1.157 0-1.598-.201-1.598-.739 0-2.076 2.943.193 2.943-7.286v-31.847c0-.938-.073-2.578-.073-2.862 0-5.824-4.279-4.248-4.279-6.001 0-.793.506-1.016 1.517-1.016 4.61.661 9.711 1.107 26.452.786m-9.613 23.389h2.598c5.126 0 6.929-3.024 6.929-10.755 0-7.94-1.732-10.474-6.207-10.474h-3.32v21.229z"/><path fill="#3A3A3A" d="M59.49 35.378c0 7.619 4.808 10.819 10.039 10.349 6.699-.583 8.87-5.979 10.169-5.979.362 0 .653.215.653.717 0 .715-.506 2.816-2.023 5.208-3.032 4.764-7.798 7.438-13.501 7.438-9.67 0-16.966-7.299-16.966-16.754 0-11.257 7.186-17.405 16.853-17.405 9.718 0 14.984 7.688 15.057 16.426h-20.281zm9.308-5.524c0-6.131-1.226-8.824-4.113-8.824-3.391 0-5.126 2.977-5.126 9.693v1.724h9.347c-.001-.654-.108-2.517-.108-2.593"/><path fill="#3A3A3A" d="M111.859 46.198c0 1.516.433 2.238 1.373 2.238 1.664 0 4.013-2.83 4.835-3.594.36 0 .624.695.624 1.124 0 1.885-7.729 7.147-13.144 7.147-3.098 0-5.669-1.214-5.669-4.414-4.402 3.041-8.299 4.414-11.113 4.414-4.911 0-8.087-2.899-8.087-7.014 0-5.842 5.63-6.855 13.501-10.033l5.699-2.24v-8.486c0-2.294-.543-4.294-2.985-4.294-2.74 0-3.562 1.662-3.562 3.971 0 1.232.832 2.877.832 4.04 0 2.593-2.53 4.5-6.288 4.5-3.47 0-5.114-2.801-5.114-5.47 0-5.132 4.747-9.348 15.141-9.348 6.499 0 13.959 1.922 13.959 9.933v17.526zm-14.506-9.48c-2.672 1.369-3.751 2.671-3.751 6.787 0 3.393 1.079 5.053 2.672 5.053.864 0 2.163-.722 3.604-2.091v-11.049l-2.525 1.3z"/><path fill="#3A3A3A" d="M276.08 30.139c0 .646-.137 1.016-.719 1.016-1.077 0-1.155-1.594-2.378-3.979-2.305-4.402-5.62-6.363-9.166-6.363-3.389 0-5.63 1.746-5.63 3.763 0 2.747 3.176 3.538 8.229 5.2 7.658 2.532 12.05 4.772 12.05 10.91 0 6.642-5.606 12.425-15.133 12.425-5.175 0-8.691-2.522-12.865-.744-3.692 1.743-.362-1.378-.362-12.058 0-.867.208-1.298.861-1.298 1.086 0 .861 1.082 1.661 3.398 2.168 6.064 6.437 8.758 11.333 8.758 3.462 0 5.848-1.67 5.848-4.125 0-2.676-2.163-3.685-6.207-5.056-8.228-2.813-13.712-4.622-13.712-11.348 0-6.346 5.415-11.48 14.365-11.48 3.531 0 8.204 1.763 11.735.524-.018 3.301.09 9.811.09 10.457"/><path fill="#3A3A3A" d="M277.925 2.832c1.324 1.271 2.075 3.055 2.075 4.995 0 1.724-.866 3.57-2.427 4.931-1.37 1.209-3.176 1.885-5.106 1.885-1.497 0-2.914-.399-4.152-1.146-2.143-1.332-3.384-3.447-3.384-5.825 0-1.846.771-3.592 2.2-4.916 1.414-1.332 3.337-2.079 5.358-2.079 2.03 0 4.022.794 5.436 2.155m-9.985.656c-1.201 1.129-1.855 2.607-1.855 4.184 0 1.616.653 3.07 1.882 4.187 1.24 1.138 2.77 1.731 4.5 1.731 1.722 0 3.301-.617 4.482-1.731 1.209-1.131 1.894-2.649 1.894-4.187 0-1.577-.71-3.131-1.894-4.209-1.199-1.092-2.821-1.731-4.46-1.731-1.706.001-3.365.64-4.549 1.756m4.798.221c2.097 0 3.005.847 3.005 1.885 0 1.116-.585 1.672-2.508 1.986 1.554.277 2.332 1.07 2.332 2.431 0 .556.367.671.761.492l.025.502c-.164.223-.778.561-1.292.561-.624 0-.962-.169-1.226-.453-.46-.477-.313-1.163-.421-1.863-.149-1.063-.57-1.523-1.492-1.523h-.169v2.284c0 .585.23.793.553.854v.531h-3.262v-.531c.548-.061.57-.255.57-.854v-4.917c0-.607-.105-.801-.57-.862v-.523h3.694zm-.58 3.525c1.14 0 1.507-.546 1.507-1.64 0-.722-.33-1.361-1.177-1.361-.499 0-.736.193-.736.593v2.384c.152.024.276.024.406.024"/><path fill="#3A3A3A" d="M157.673 45.928c-1.081 0-2.904 2.507-4.563 2.507-.94 0-1.373-.722-1.373-2.238l.013-46.197c-10.215 3.286-15.19.901-15.19 2.703 0 1.954 3.132-1.18 3.132 4.953v12.012c-1.95-.362-3.609-.578-5.124-.578-10.465 0-18.047 8.165-18.047 19.506 0 8.809 5.128 14.516 11.622 14.516 3.89 0 7.495-1.591 11.532-4.828v.414c0 3.2 2.564 4.414 5.664 4.414 5.412 0 12.912-4.652 12.912-6.537 0-.431-.215-.647-.578-.647m-22.023 2.123c-4.115 0-6.785-5.124-6.785-15.018 0-8.165 2.094-12.281 6.063-12.281 3.247 0 4.764 2.603 4.764 7.732 0 0-.012 13.627-.017 17.706-1.292 1.215-2.66 1.861-4.025 1.861"/><path fill="#3A3A3A" d="M164.658 14.812c3.682 0 6.856-3.031 6.856-6.863 0-3.824-3.029-6.855-6.856-6.855s-6.856 3.178-6.856 6.855c0 3.685 3.174 6.863 6.856 6.863m12.415 31.115c-1.108 0-3.137 2.51-4.837 2.51-.962 0-1.402-.725-1.402-2.24l.003-26.606c-11.26 3.961-15.238 2.047-15.238 3.77 0 1.961 2.488-.563 2.488 3.085 0 0 .054 21.722.054 22.25 0 3.202 3.066 4.414 6.232 4.414 5.54 0 13.288-4.652 13.288-6.537-.001-.43-.223-.646-.588-.646"/><path fill="#3A3A3A" d="M231.853 19.227c9.824.441 15.101 5.379 15.101 11.297 0 3.685-1.108 7.01-4.402 9.14-3.966 2.563-9.332 3.579-14.03 4.233-3.315.499-4.898 1.222-4.898 2.37 0 1.961 2.444 1.107 7.788 1.254 5.855.14 10.174.14 12.926 1.146 3.313 1.231 5.552 4.483 5.552 8.669 0 8.909-8.143 12.056-19.055 12.056-8.331 0-17.108-2.015-17.108-7.362 0-2.678 1.877-4.556 5.412-5.555-2.09-1.163-3.242-3.114-3.242-5.492 0-5.132 4.25-8.554 10.778-9.093-8.549-.84-12.133-5.695-12.133-11.035 0-5.994 5.699-11.111 15.373-11.627m-.139.2c.015-1.3-.186-3.739-.186-4.97 0-5.563 3.352-10.18 8.605-10.18 2.755 0 4.967 2.032 4.967 4.865 0 2.823-1.975 5.178-4.918 5.178-1.742 0-2.97-.455-3.445-.455-2.963 0-2.941 3.433-2.941 5.408v.154m-13.58 41.384c0 3.832 5.708 6.495 12.258 6.495 5.114 0 12.931-1.741 12.931-5.565 0-2.463-2.244-3.677-6.78-3.761-8.451-.147-13.648-.071-15.601-.793-1.8.939-2.808 1.815-2.808 3.624m8.544-31.035c0 6.941.846 9.894 4.03 9.894 3.244 0 4.174-3.175 4.174-10.109 0-6.424-1.223-8.388-4.174-8.388-3.039 0-4.03 2.326-4.03 8.603"/><path fill="#3A3A3A" d="M219.493 44.235c-1.057.747-5.894 4.201-7.595 4.201-.962 0-1.576-.722-1.576-2.24l-.02-16.45c-.051-7.171-3.009-10.655-9.447-10.655-4.115 0-7.727 1.731-11.994 4.769v-4.054c-10.756 3.832-14.759 1.755-14.759 3.555 0 2.208 2.772-1.44 2.772 5.07v22.383c0 .693.311 1.285 1.04 1.285h11.118c-.108-.901-.171-1.863-.171-2.865v-23.21c1.735-1.594 3.541-2.456 5.131-2.456 3.039 0 4.262 2.093 4.262 6.356 0 0 .064 18.512.064 18.774 0 3.2 2.559 4.412 5.725 4.412 5.532 0 14.035-4.875 14.035-6.752.001-.431 1.719-2.331 1.415-2.123"/><g fill="#3A3A3A"><path d="M4.97 59.418h1.154l3.226 7.493h-1.522l-.698-1.714h-3.247l-.679 1.714h-1.49l3.256-7.493zm1.694 4.636l-1.154-3.048-1.173 3.048h2.327zM17.835 64.159c0 .452-.079.858-.234 1.222s-.366.672-.633.928c-.268.253-.585.449-.953.586-.366.139-.765.208-1.195.208s-.829-.069-1.195-.208c-.368-.136-.686-.332-.958-.586-.27-.256-.483-.564-.633-.928-.153-.363-.229-.77-.229-1.222v-4.741h1.333v4.698c0 .184.029.375.086.579.055.201.148.385.28.555.131.17.303.308.519.418s.48.163.798.163c.318 0 .583-.053.798-.163.215-.11.389-.249.519-.418.131-.17.225-.354.282-.555.055-.203.084-.395.084-.579v-4.698h1.333v4.741zM24.793 61.027c-.141-.206-.33-.356-.566-.45-.237-.096-.485-.143-.745-.143-.155 0-.306.017-.449.053-.146.036-.275.091-.392.17-.117.077-.21.177-.28.301-.072.124-.108.27-.108.44 0 .253.088.447.265.581s.394.251.657.349c.26.1.545.194.855.287.311.091.595.218.858.38.26.163.478.378.655.646.177.268.265.624.265 1.069 0 .402-.074.753-.222 1.054-.148.299-.349.548-.597.746-.251.196-.542.344-.872.445-.332.098-.681.148-1.049.148-.466 0-.913-.079-1.343-.234-.43-.155-.8-.416-1.111-.782l1.006-.976c.162.249.375.44.64.579.263.136.545.206.841.206.153 0 .308-.022.464-.065.155-.041.296-.105.423-.189.129-.086.229-.194.308-.323.076-.132.115-.282.115-.45 0-.275-.086-.488-.263-.636-.177-.148-.397-.273-.657-.375s-.545-.198-.855-.292c-.311-.091-.597-.218-.858-.375s-.48-.371-.655-.636c-.177-.263-.265-.619-.265-1.064 0-.387.079-.722.239-1.004.158-.282.366-.516.624-.703.258-.189.552-.328.882-.418.332-.093.671-.139 1.016-.139.397 0 .779.06 1.149.179.37.122.702.318.999.593l-.974 1.028zM30.379 60.623h-2.296v-1.205h5.923v1.205h-2.296v6.288h-1.331v-6.288zM36.568 59.418h2.602c.358 0 .707.033 1.042.1.335.067.633.182.894.344.26.163.468.38.624.655.155.275.232.624.232 1.047 0 .545-.148.999-.449 1.368-.299.366-.726.588-1.286.665l1.99 3.314h-1.608l-1.735-3.175h-.972v3.175h-1.333v-7.493zm2.368 3.175c.191 0 .382-.01.571-.026.191-.019.366-.06.526-.127.158-.067.287-.17.385-.308.098-.136.148-.33.148-.576 0-.218-.045-.395-.136-.528-.093-.134-.213-.234-.361-.301-.148-.069-.313-.112-.492-.134s-.354-.031-.523-.031h-1.152v2.032h1.034zM47.301 59.418h1.154l3.226 7.493h-1.522l-.698-1.714h-3.247l-.679 1.714h-1.491l3.257-7.493zm1.694 4.636l-1.154-3.048-1.173 3.048h2.327zM54.168 59.418h1.333v6.286h3.183v1.207h-4.516v-7.493zM61.274 59.418h1.333v7.493h-1.333v-7.493zM68.318 59.418h1.154l3.226 7.493h-1.522l-.698-1.714h-3.247l-.679 1.714h-1.491l3.257-7.493zm1.695 4.636l-1.154-3.048-1.173 3.048h2.327zM75.64 59.418h1.29l-.898 2.793h-1.133l.741-2.793zM83.637 61.027c-.141-.206-.33-.356-.566-.45-.237-.096-.485-.143-.745-.143-.155 0-.306.017-.449.053-.146.036-.275.091-.392.17-.117.077-.21.177-.28.301-.072.124-.108.27-.108.44 0 .253.088.447.265.581.177.134.394.251.657.349.26.1.545.194.855.287.311.091.595.218.858.38.26.163.478.378.655.646.177.268.265.624.265 1.069 0 .402-.074.753-.222 1.054-.148.299-.349.548-.597.746-.251.196-.542.344-.872.445-.332.098-.681.148-1.049.148-.466 0-.913-.079-1.343-.234s-.8-.416-1.111-.782l1.006-.976c.162.249.375.44.64.579.263.136.545.206.841.206.153 0 .308-.022.464-.065.155-.041.296-.105.423-.189.129-.086.229-.194.308-.323.076-.132.115-.282.115-.45 0-.275-.086-.488-.263-.636-.177-.148-.397-.273-.657-.375s-.545-.198-.855-.292c-.311-.091-.597-.218-.858-.375s-.48-.371-.655-.636c-.177-.263-.265-.619-.265-1.064 0-.387.079-.722.239-1.004.158-.282.366-.516.624-.703.258-.189.552-.328.882-.418.332-.093.671-.139 1.016-.139.397 0 .779.06 1.149.179.37.122.702.318.999.593l-.974 1.028zM92.067 63.196c0-.6.098-1.145.294-1.635.198-.49.471-.909.822-1.253.349-.347.765-.612 1.247-.801.483-.186 1.013-.28 1.591-.28.585-.007 1.121.079 1.608.261.487.179.906.442 1.259.787.351.347.626.763.824 1.25.198.485.296 1.03.296 1.628 0 .586-.098 1.119-.296 1.6-.198.481-.473.892-.824 1.239-.354.344-.772.614-1.259.811-.487.194-1.023.294-1.608.301-.578 0-1.109-.093-1.591-.282-.483-.186-.898-.449-1.247-.794-.351-.342-.624-.753-.822-1.231-.196-.482-.294-1.015-.294-1.601zm1.395-.084c0 .402.062.772.184 1.112.124.337.299.631.523.877.227.246.497.44.81.581.313.143.664.213 1.054.213.387 0 .738-.069 1.056-.213.318-.141.59-.335.815-.581.227-.246.401-.54.523-.877.124-.34.186-.71.186-1.112 0-.375-.062-.724-.186-1.047-.122-.325-.296-.61-.523-.854-.225-.244-.497-.433-.815-.571-.318-.136-.669-.206-1.056-.206-.389 0-.741.069-1.054.206-.313.139-.583.328-.81.571-.225.244-.399.528-.523.854-.122.323-.184.672-.184 1.047zM102.093 59.418h1.46l1.407 5.396h.022l1.68-5.396h1.312l1.651 5.396h.022l1.469-5.396h1.355l-2.179 7.493h-1.269l-1.735-5.705h-.022l-1.735 5.705h-1.228l-2.21-7.493zM114.957 59.418h1.766l3.627 5.566h.022v-5.566h1.333v7.493h-1.692l-3.704-5.748h-.019v5.748h-1.333v-7.493zM133.478 61.027c-.141-.206-.33-.356-.566-.45-.237-.096-.485-.143-.745-.143-.155 0-.306.017-.449.053-.146.036-.275.091-.392.17-.117.077-.21.177-.28.301-.072.124-.108.27-.108.44 0 .253.088.447.265.581s.394.251.657.349c.26.1.545.194.855.287.311.091.595.218.858.38.26.163.478.378.655.646.177.268.265.624.265 1.069 0 .402-.074.753-.222 1.054-.148.299-.349.548-.597.746-.251.196-.542.344-.872.445-.332.098-.681.148-1.049.148-.466 0-.913-.079-1.343-.234-.43-.155-.8-.416-1.111-.782l1.006-.976c.162.249.375.44.64.579.263.136.545.206.841.206.153 0 .308-.022.464-.065.155-.041.296-.105.423-.189.129-.086.229-.194.308-.323.076-.132.115-.282.115-.45 0-.275-.086-.488-.263-.636-.177-.148-.397-.273-.657-.375-.26-.103-.545-.198-.855-.292-.311-.091-.597-.218-.858-.375-.26-.158-.48-.371-.655-.636-.177-.263-.265-.619-.265-1.064 0-.387.079-.722.239-1.004.158-.282.366-.516.624-.703.258-.189.552-.328.882-.418.332-.093.671-.139 1.016-.139.397 0 .779.06 1.149.179.37.122.702.318.999.593l-.974 1.028zM137.494 59.418h1.333v7.493h-1.333v-7.493zM142.12 59.418h1.766l3.627 5.566h.022v-5.566h1.333v7.493h-1.692l-3.704-5.748h-.019v5.748h-1.333v-7.493zM157.329 61.176c-.275-.296-.54-.495-.798-.593-.258-.1-.516-.148-.777-.148-.389 0-.741.069-1.054.206-.313.139-.583.328-.81.571-.225.244-.399.528-.523.854-.122.323-.184.672-.184 1.047 0 .402.062.772.184 1.112.124.337.299.631.523.877.227.246.497.44.81.581.313.143.664.213 1.054.213.301 0 .597-.072.882-.218.287-.143.552-.375.798-.693l1.102.784c-.339.466-.75.803-1.238 1.016-.487.21-1.006.318-1.556.318-.578 0-1.109-.093-1.591-.282-.483-.186-.898-.449-1.247-.794-.351-.342-.624-.753-.822-1.231-.196-.481-.294-1.014-.294-1.6 0-.6.098-1.145.294-1.635.198-.49.471-.909.822-1.253.349-.347.765-.612 1.247-.801.483-.186 1.013-.28 1.591-.28.509 0 .98.091 1.412.27.435.179.839.485 1.211.916l-1.036.763zM161.085 59.418h4.96v1.205h-3.627v1.843h3.436v1.205h-3.436v2.032h3.818v1.207h-5.152v-7.492zM175.976 60.879l-1.405 1.301-.741-.877 2.263-1.884h1.154v7.493h-1.271v-6.033zM182.693 66.911l1.799-2.773-.021-.022c-.079.043-.182.074-.313.096-.129.022-.258.031-.385.031-.332 0-.636-.062-.91-.189-.275-.127-.514-.301-.714-.519-.201-.22-.356-.473-.466-.763-.108-.289-.162-.595-.162-.921 0-.387.067-.741.201-1.059.134-.318.318-.586.554-.808s.519-.395.846-.514c.33-.12.683-.179 1.063-.179.389 0 .745.057 1.075.175.327.115.609.285.846.502.237.218.418.488.55.803.131.318.196.674.196 1.071 0 .395-.065.753-.196 1.074-.131.32-.299.648-.502.978l-1.916 3.017h-1.545zm2.824-5.049c0-.189-.036-.368-.105-.533-.072-.165-.167-.311-.292-.435-.124-.122-.268-.22-.432-.289-.167-.072-.344-.108-.535-.108s-.368.036-.533.108c-.167.069-.311.167-.435.289-.124.124-.22.27-.292.435-.069.165-.105.344-.105.533 0 .191.036.371.105.536.072.165.167.311.292.433.124.124.268.222.435.292.165.072.342.105.533.105s.368-.033.535-.105c.165-.069.308-.167.432-.292.124-.122.22-.268.292-.433.069-.166.105-.345.105-.536zM193.591 59.418l-1.799 2.773.021.019c.076-.041.182-.074.311-.093.131-.022.26-.033.387-.033.332 0 .636.065.91.191.275.127.511.301.714.519.201.218.356.473.464.763.11.289.165.595.165.921 0 .387-.067.741-.201 1.059-.134.316-.32.586-.557.808-.237.222-.519.395-.846.514-.327.12-.681.179-1.063.179-.394 0-.753-.057-1.078-.175-.325-.117-.605-.285-.841-.502-.237-.22-.421-.488-.55-.806-.131-.316-.196-.672-.196-1.069 0-.395.065-.753.196-1.074.129-.32.296-.648.502-.98l1.914-3.015h1.547zm-2.824 5.048c0 .191.033.371.105.536.069.165.167.311.292.433.122.124.268.222.432.292.165.072.344.105.535.105.189 0 .368-.033.533-.105.165-.069.311-.167.435-.292.122-.122.22-.268.289-.433.072-.165.108-.344.108-.536 0-.189-.036-.368-.108-.533-.069-.165-.167-.311-.289-.435-.124-.122-.27-.22-.435-.289-.165-.072-.344-.108-.533-.108-.191 0-.37.036-.535.108-.165.069-.311.167-.432.289-.124.124-.222.27-.292.435-.072.164-.105.344-.105.533zM198.518 66.911l1.799-2.773-.021-.022c-.079.043-.182.074-.313.096-.129.022-.258.031-.385.031-.332 0-.636-.062-.91-.189-.275-.127-.514-.301-.714-.519-.201-.22-.356-.473-.466-.763-.108-.289-.162-.595-.162-.921 0-.387.067-.741.201-1.059.134-.318.318-.586.554-.808s.519-.395.846-.514c.33-.12.683-.179 1.063-.179.389 0 .745.057 1.075.175.327.115.609.285.846.502.237.218.418.488.55.803.131.318.196.674.196 1.071 0 .395-.065.753-.196 1.074-.131.32-.299.648-.502.978l-1.916 3.017h-1.545zm2.824-5.049c0-.189-.036-.368-.105-.533-.072-.165-.167-.311-.292-.435-.124-.122-.268-.22-.432-.289-.167-.072-.344-.108-.535-.108s-.368.036-.533.108c-.167.069-.311.167-.435.289-.124.124-.22.27-.292.435-.069.165-.105.344-.105.533 0 .191.036.371.105.536.072.165.167.311.292.433.124.124.268.222.435.292.165.072.342.105.533.105s.368-.033.535-.105c.165-.069.308-.167.432-.292.124-.122.22-.268.292-.433.069-.166.105-.345.105-.536z"/></g></svg>